<svg width="47" height="47" viewBox="0 0 47 47" fill="none" xmlns="http://www.w3.org/2000/svg">
<path d="M9.40617 35.1875C11.3541 33.6979 13.5312 32.5234 15.9374 31.664C18.3437 30.8047 20.8645 30.375 23.4999 30.375C26.1353 30.375 28.6562 30.8047 31.0624 31.664C33.4687 32.5234 35.6458 33.6979 37.5937 35.1875C38.9305 33.6215 39.9713 31.8455 40.7161 29.8594C41.4609 27.8732 41.8333 25.7535 41.8333 23.5C41.8333 18.4201 40.0477 14.0946 36.4765 10.5234C32.9053 6.95224 28.5798 5.16665 23.4999 5.16665C18.4201 5.16665 14.0945 6.95224 10.5234 10.5234C6.95218 14.0946 5.16659 18.4201 5.16659 23.5C5.16659 25.7535 5.53898 27.8732 6.28377 29.8594C7.02856 31.8455 8.06936 33.6215 9.40617 35.1875ZM23.4999 25.7916C21.2464 25.7916 19.3463 25.0182 17.7994 23.4713C16.2525 21.9245 15.4791 20.0243 15.4791 17.7708C15.4791 15.5173 16.2525 13.6172 17.7994 12.0703C19.3463 10.5234 21.2464 9.74998 23.4999 9.74998C25.7534 9.74998 27.6536 10.5234 29.2004 12.0703C30.7473 13.6172 31.5208 15.5173 31.5208 17.7708C31.5208 20.0243 30.7473 21.9245 29.2004 23.4713C27.6536 25.0182 25.7534 25.7916 23.4999 25.7916ZM23.4999 46.4166C20.3298 46.4166 17.3506 45.8151 14.5624 44.612C11.7742 43.4088 9.34888 41.776 7.28638 39.7135C5.22388 37.651 3.59106 35.2257 2.38794 32.4375C1.18481 29.6493 0.583252 26.6701 0.583252 23.5C0.583252 20.3298 1.18481 17.3507 2.38794 14.5625C3.59106 11.7743 5.22388 9.34894 7.28638 7.28644C9.34888 5.22394 11.7742 3.59113 14.5624 2.388C17.3506 1.18488 20.3298 0.583313 23.4999 0.583313C26.6701 0.583313 29.6492 1.18488 32.4374 2.388C35.2256 3.59113 37.651 5.22394 39.7135 7.28644C41.776 9.34894 43.4088 11.7743 44.6119 14.5625C45.815 17.3507 46.4166 20.3298 46.4166 23.5C46.4166 26.6701 45.815 29.6493 44.6119 32.4375C43.4088 35.2257 41.776 37.651 39.7135 39.7135C37.651 41.776 35.2256 43.4088 32.4374 44.612C29.6492 45.8151 26.6701 46.4166 23.4999 46.4166Z" fill="#49454F"/>
</svg>
