<svg width="199" height="58" viewBox="0 0 199 58" fill="none" xmlns="http://www.w3.org/2000/svg">
<path d="M82.7805 22.1281H87.0685V51.8561H82.7805V22.1281ZM71.1005 24.2081C75.5805 24.2081 78.8765 28.3041 78.8765 34.7681C78.8765 41.2961 75.5805 45.3921 71.1005 45.3921C66.6205 45.3921 63.3245 41.2961 63.3245 34.7681C63.3245 28.3041 66.6205 24.2081 71.1005 24.2081ZM71.1005 28.0801C68.8925 28.0801 67.3885 30.4161 67.3885 34.7681C67.3885 39.1841 68.8925 41.5521 71.1005 41.5521C73.3085 41.5521 74.7805 39.1841 74.7805 34.7681C74.7805 30.4161 73.3085 28.0801 71.1005 28.0801ZM98.874 24.4321H102.33V28.7521C102.33 36.0801 99.77 42.9601 94.17 45.7121L91.61 42.2881C96.602 39.9521 98.874 34.2561 98.874 28.7521V24.4321ZM99.738 24.4321H103.13V28.7521C103.13 34.0641 105.242 39.4721 109.978 41.7761L107.418 45.1681C102.074 42.4481 99.738 35.8561 99.738 28.7521V24.4321ZM111.162 22.1601H115.45V51.7921H111.162V22.1601ZM114.49 33.5521H119.738V37.1041H114.49V33.5521Z" fill="#B8ADAD"/>
<path d="M128.416 43.8241H161.936V48.1841H128.416V43.8241ZM142.336 35.5841H147.616V44.9841H142.336V35.5841ZM142.136 17.5041H146.776V20.1841C146.776 28.0641 141.056 35.0241 131.376 36.7841L129.176 32.3441C137.616 30.9841 142.136 25.3041 142.136 20.1841V17.5041ZM143.176 17.5041H147.816V20.1841C147.816 25.4241 152.336 30.9841 160.816 32.3441L158.616 36.7841C148.896 34.9841 143.176 28.1841 143.176 20.1841V17.5041ZM162.732 34.5441H196.252V38.7041H162.732V34.5441ZM176.812 30.5841H182.132V36.0641H176.812V30.5841ZM166.892 28.2641H192.692V32.3041H166.892V28.2641ZM166.892 16.3841H192.412V20.4241H172.172V30.5441H166.892V16.3841ZM170.692 22.3841H191.572V26.2641H170.692V22.3841ZM179.452 40.3441C187.572 40.3441 192.292 42.5041 192.292 46.4241C192.292 50.3841 187.572 52.5041 179.452 52.5041C171.292 52.5041 166.572 50.3841 166.572 46.4241C166.572 42.5041 171.292 40.3441 179.452 40.3441ZM179.452 44.2641C174.292 44.2641 171.932 44.9041 171.932 46.4241C171.932 47.9841 174.292 48.6241 179.452 48.6241C184.572 48.6241 186.932 47.9841 186.932 46.4241C186.932 44.9041 184.572 44.2641 179.452 44.2641Z" fill="#268AE5"/>
<path d="M10.4561 19.4055H7.40055C7.19795 19.4055 7.00365 19.325 6.8604 19.1818C6.71714 19.0385 6.63666 18.8442 6.63666 18.6416V7.94718C6.63666 7.74458 6.71714 7.55028 6.8604 7.40703C7.00365 7.26377 7.19795 7.18329 7.40055 7.18329H10.4561C10.6587 7.18329 10.853 7.26377 10.9963 7.40703C11.1395 7.55028 11.22 7.74458 11.22 7.94718V18.6416C11.22 18.8442 11.1395 19.0385 10.9963 19.1818C10.853 19.325 10.6587 19.4055 10.4561 19.4055Z" fill="#A0041E"/>
<path d="M3.81946 21.3886L23.6806 1.52747L43.5417 21.3886V47.3608H3.81946V21.3886Z" fill="#FFE8B6"/>
<path d="M23.6805 21.3885H25.2083V45.833H23.6805V21.3885Z" fill="#FFCC4D"/>
<path d="M43.5416 22.9163C43.1365 22.9163 42.7479 22.7552 42.4615 22.4687L23.6805 3.68773L4.89956 22.4687C4.75771 22.6105 4.58931 22.7231 4.40398 22.7998C4.21865 22.8766 4.02002 22.9161 3.81942 22.9161C3.61882 22.9161 3.42018 22.8766 3.23485 22.7998C3.04952 22.7231 2.88112 22.6105 2.73928 22.4687C2.59743 22.3269 2.48491 22.1585 2.40815 21.9731C2.33138 21.7878 2.29187 21.5892 2.29187 21.3886C2.29187 21.188 2.33138 20.9893 2.40815 20.804C2.48491 20.6187 2.59743 20.4503 2.73928 20.3084L22.6004 0.447313C22.8869 0.160898 23.2754 0 23.6805 0C24.0856 0 24.4742 0.160898 24.7607 0.447313L44.6218 20.3084C44.8361 20.5218 44.9822 20.794 45.0416 21.0906C45.1009 21.3872 45.0708 21.6947 44.9551 21.9741C44.8394 22.2535 44.6432 22.4923 44.3916 22.66C44.1399 22.8278 43.8441 22.917 43.5416 22.9163Z" fill="#66757F"/>
<path d="M23.6806 22.9164C23.3781 22.917 23.0823 22.8278 22.8306 22.6601C22.579 22.4923 22.3828 22.2536 22.2671 21.9741C22.1514 21.6947 22.1213 21.3872 22.1806 21.0906C22.24 20.7941 22.3861 20.5218 22.6004 20.3084L32.531 10.3779C32.6728 10.236 32.8412 10.1235 33.0266 10.0468C33.2119 9.96999 33.4105 9.93048 33.6111 9.93048C33.8117 9.93048 34.0104 9.96999 34.1957 10.0468C34.381 10.1235 34.5494 10.236 34.6913 10.3779C34.8331 10.5197 34.9456 10.6881 35.0224 10.8735C35.0992 11.0588 35.1387 11.2574 35.1387 11.458C35.1387 11.6586 35.0992 11.8573 35.0224 12.0426C34.9456 12.2279 34.8331 12.3963 34.6913 12.5382L24.7607 22.4687C24.4743 22.7553 24.0857 22.9163 23.6806 22.9164Z" fill="#66757F"/>
<path d="M11.4583 36.6664H17.5694V45.833H11.4583V36.6664Z" fill="#C1694F"/>
<path d="M11.4583 22.9164H17.5694V29.0275H11.4583V22.9164ZM30.5555 22.9164H36.6666V29.0275H30.5555V22.9164ZM30.5555 36.6664H36.6666V42.7775H30.5555V36.6664Z" fill="#55ACEE"/>
<path d="M47.3611 48.1247C47.3611 48.7325 47.1197 49.3154 46.6899 49.7451C46.2601 50.1749 45.6772 50.4163 45.0694 50.4163H2.29167C1.68388 50.4163 1.10098 50.1749 0.671214 49.7451C0.241443 49.3154 0 48.7325 0 48.1247C0 47.5169 0.241443 46.934 0.671214 46.5042C1.10098 46.0744 1.68388 45.833 2.29167 45.833H45.0694C45.6772 45.833 46.2601 46.0744 46.6899 46.5042C47.1197 46.934 47.3611 47.5169 47.3611 48.1247Z" fill="#5C913B"/>
</svg>
